<?xml version="1.0" standalone="no"?>
<!DOCTYPE svg PUBLIC "-//W3C//DTD SVG 1.1//EN" "http://www.w3.org/Graphics/SVG/1.1/DTD/svg11.dtd" >
<svg xmlns="http://www.w3.org/2000/svg" xmlns:xlink="http://www.w3.org/1999/xlink" version="1.1">
<metadata></metadata>
<defs>
<font id="futurateebold" horiz-adv-x="1229" vert-adv-y="2048" >
<font-face units-per-em="2048" ascent="1529" descent="-519" />
<missing-glyph horiz-adv-x="512" />
<glyph horiz-adv-x="0" vert-adv-y="0" />
<glyph horiz-adv-x="682" />
<glyph unicode=" " horiz-adv-x="512" vert-adv-y="2458" />
<glyph unicode="!" horiz-adv-x="696" vert-adv-y="2458" d="M137 174q0 89 62 150q63 62 152 62q86 0 148 -62t62 -150t-62 -150t-150 -62t-150 62q-62 63 -62 150zM178 464v901h341v-901h-341z" />
<glyph unicode="&#x22;" horiz-adv-x="840" vert-adv-y="2458" d="M84 1365h291l-49 -549h-193zM465 1365h292l-50 -549h-193z" />
<glyph unicode="#" vert-adv-y="2458" d="M32 374v236h217l23 174h-186v235h215l46 346h267l-46 -346h176l45 346h270l-46 -346h185v-235h-214l-23 -174h188v-236h-217l-50 -374h-270l50 374h-176l-49 -374h-267l50 374h-188zM516 610h176l22 174h-176z" />
<glyph unicode="$" vert-adv-y="2458" d="M117 158l148 273q168 -151 330 -151q82 0 130 47q37 37 37 83q0 66 -83 106q-16 8 -138 46q-155 48 -239 117q-107 90 -107 258q0 143 78 257q70 103 177 143q44 17 114 25v219h168v-219q199 -17 329 -105l-134 -261q-118 88 -230 88q-71 0 -115 -33q-39 -30 -39 -70 q0 -61 87 -106q17 -9 145 -51q156 -53 242 -133q96 -88 96 -251q0 -170 -96 -283q-79 -95 -285 -154v-227h-168v216q-121 4 -249 53q-137 55 -198 113z" />
<glyph unicode="%" horiz-adv-x="1834" vert-adv-y="2458" d="M68 1048q0 146 99 238q101 94 286 94q175 0 274 -107q88 -94 88 -223q0 -160 -121 -262q-92 -77 -252 -77q-186 0 -287 105q-87 90 -87 232zM288 1047q0 -63 45 -109q44 -45 109 -45q63 0 108 45t45 108q0 65 -45 109q-46 45 -111 45q-61 0 -106 -45t-45 -108zM431 0 l792 1365h178l-793 -1365h-177zM1018 321q0 147 99 238q101 94 286 94q175 0 274 -107q88 -94 88 -224q0 -159 -121 -261q-92 -77 -252 -77q-186 0 -287 106q-87 90 -87 231zM1238 320q0 -63 45 -109q45 -45 109 -45q63 0 108 45t45 108q0 65 -45 109q-46 45 -111 45 q-61 0 -106 -45t-45 -108z" />
<glyph unicode="&#x26;" horiz-adv-x="1548" vert-adv-y="2458" d="M82 354q0 180 134 292q44 37 192 104q-55 69 -72 96q-55 82 -55 184q0 77 35.5 151t98.5 127q112 95 291 95q201 0 318 -119q108 -109 108 -253q0 -148 -116 -244q-46 -37 -136 -85l171 -180q108 98 178 194l201 -193q-62 -81 -187 -200l305 -323h-442l-119 125 q-246 -163 -470 -163q-102 0 -192 36t-149 101q-94 105 -94 255zM449 410q0 -64 60 -104q38 -26 98 -26q93 0 186 59l-215 232q-129 -81 -129 -161zM617 1048q0 -48 51 -114q12 -17 34 -42t23 -24q126 76 126 168q0 54 -34 91q-32 34 -86 34q-58 0 -89 -41q-25 -34 -25 -72z " />
<glyph unicode="'" horiz-adv-x="459" vert-adv-y="2458" d="M84 1365h291l-49 -549h-193z" />
<glyph unicode="(" horiz-adv-x="692" vert-adv-y="2458" d="M137 611q0 311 99 612q62 188 163 335l198 -112q-209 -358 -209 -848q0 -291 88 -584q47 -158 121 -272l-198 -112q-114 165 -168 342q-94 312 -94 639z" />
<glyph unicode=")" horiz-adv-x="692" vert-adv-y="2458" d="M96 -258q209 358 209 848q0 291 -88 584q-48 158 -121 271l198 113q114 -165 167 -342q95 -313 95 -639q0 -311 -99 -613q-62 -187 -163 -334z" />
<glyph unicode="*" vert-adv-y="2458" d="M290 1207l50 154l225 -107l-31 248h162l-32 -247l226 106l50 -154l-245 -46l171 -182l-131 -95l-119 219l-121 -219l-131 95l171 181z" />
<glyph unicode="+" vert-adv-y="2458" d="M130 567v232h369v368h232v-368h368v-232h-368v-369h-232v369h-369z" />
<glyph unicode="," horiz-adv-x="621" vert-adv-y="2458" d="M-18 -254l235 601h308l-333 -601h-210z" />
<glyph unicode="-" horiz-adv-x="519" vert-adv-y="2458" d="M0 348v273h519v-273h-519z" />
<glyph unicode="." horiz-adv-x="621" vert-adv-y="2458" d="M99 174q0 89 62 150q63 62 152 62q86 0 148 -62t62 -150t-62 -150t-150 -62t-150 62q-62 63 -62 150z" />
<glyph unicode="/" horiz-adv-x="1014" vert-adv-y="2458" d="M-2 -314l745 1816h260l-746 -1816h-259z" />
<glyph unicode="0" vert-adv-y="2458" d="M36 680q0 334 155 526q170 211 432 211q249 0 416 -211q155 -195 155 -524q0 -168 -37.5 -295t-117.5 -228q-167 -211 -424 -211q-258 0 -424 211q-155 198 -155 521zM388 679q0 -183 63 -304q26 -51 72 -83.5t92 -32.5q66 0 125 61q51 53 78 160q24 93 24 197 q0 188 -63 308q-27 52 -73 83.5t-94 31.5q-63 0 -122 -61q-52 -53 -79 -160q-23 -93 -23 -200z" />
<glyph unicode="1" vert-adv-y="2458" d="M285 1065v300h549v-1365h-355v1065h-194z" />
<glyph unicode="2" vert-adv-y="2458" d="M53 0l347 363q172 179 284 346q83 124 83 235q0 76 -51 130q-44 47 -109 47q-81 0 -121 -70q-23 -40 -23 -97q0 -16 5 -57h-391q1 141 71 273q67 127 189 191q118 62 269 62q115 0 216 -37.5t171 -105.5q141 -138 141 -349q0 -122 -47 -219t-155 -198l-230 -214h447v-300 h-1096z" />
<glyph unicode="3" vert-adv-y="2458" d="M54 437h363q4 -70 33 -112q52 -79 161 -79q93 0 143 63q42 52 42 117q0 93 -75 148q-46 33 -102 33q-26 0 -72 -8v242q27 -2 39 -2q75 0 115 46q38 45 38 106q0 68 -49 105q-39 30 -91 30q-78 0 -119 -61q-23 -34 -26 -94h-328q16 135 68 223q64 109 174 164 q119 59 260 59q203 0 324 -111q117 -106 117 -282q0 -105 -46 -187q-30 -53 -99 -98q81 -26 128 -81q96 -112 96 -268q0 -111 -50.5 -205t-143.5 -154q-143 -92 -340 -92q-332 0 -489 267q-68 115 -71 231z" />
<glyph unicode="4" vert-adv-y="2458" d="M23 280v229l525 856h464v-812h166v-273h-166v-280h-328v280h-661zM363 553h321v526z" />
<glyph unicode="5" vert-adv-y="2458" d="M94 80l53 332q188 -158 373 -158q115 0 180 78q47 55 47 127q0 116 -108 181q-79 48 -196 48q-130 0 -259 -57l119 734h710v-300h-472l-25 -151q61 9 110 9q206 0 341 -128q146 -139 146 -351q0 -115 -49 -215t-137 -166q-141 -107 -387 -107q-247 0 -446 124z" />
<glyph unicode="6" vert-adv-y="2458" d="M36 446q0 142 78 307q55 116 128 212l305 400h403l-389 -464q105 42 192 42q186 0 313 -135q128 -137 128 -343q0 -124 -51 -229.5t-145 -175.5q-154 -115 -390 -115q-280 0 -431 155q-141 146 -141 346zM381 450q0 -93 66 -159t160 -66t159 66q66 67 66 159 q0 94 -66 159q-67 66 -162 66q-91 0 -157 -66t-66 -159z" />
<glyph unicode="7" vert-adv-y="2458" d="M91 0l623 1065h-570v300h1120l-783 -1365h-390z" />
<glyph unicode="8" vert-adv-y="2458" d="M93 369q0 164 121 268q51 44 150 82q-84 35 -129 84q-86 91 -86 217q0 75 35 149t96 129q119 104 336 104q111 0 206.5 -33.5t155.5 -94.5q102 -103 102 -255q0 -144 -96 -225q-42 -34 -127 -75q108 -42 162 -90q117 -105 117 -260q0 -195 -181 -312q-142 -92 -339 -92 q-118 0 -225.5 37t-180.5 103q-117 106 -117 264zM451 412q0 -67 48 -116q47 -48 115 -48t116 48t48 115q0 69 -48 116q-49 48 -118 48q-66 0 -113 -48q-48 -48 -48 -115zM464 1014q0 -61 44 -106q44 -44 107 -44q62 0 106 44t44 106q0 63 -44 106q-45 44 -108 44 q-61 0 -105 -44t-44 -106z" />
<glyph unicode="9" vert-adv-y="2458" d="M36 900q0 124 51 229.5t145 175.5q154 115 390 115q280 0 431 -155q141 -146 141 -346q0 -142 -78 -307q-54 -115 -128 -212l-305 -400h-403l389 464q-105 -42 -191 -42q-188 0 -314 135q-128 137 -128 343zM399 916q0 -92 66 -159q65 -66 159 -66t160 66t66 159 q0 95 -66 159q-68 66 -163 66q-90 0 -156 -66t-66 -159z" />
<glyph unicode=":" horiz-adv-x="621" vert-adv-y="2458" d="M99 174q0 89 62 150q63 62 152 62q86 0 148 -62t62 -150t-62 -150t-150 -62t-150 62q-62 63 -62 150zM99 784q0 89 62 150q63 62 152 62q85 0 147 -62t62 -149q0 -88 -62 -150t-150 -62t-149 62q-62 63 -62 149z" />
<glyph unicode=";" horiz-adv-x="621" vert-adv-y="2458" d="M-19 -254l235 601h308l-333 -601h-210zM147 784q0 89 62 150q63 62 152 62q85 0 147 -62t62 -149q0 -88 -62 -150t-150 -62t-149 62q-62 63 -62 149z" />
<glyph unicode="&#x3c;" horiz-adv-x="1024" vert-adv-y="2458" d="M68 532v322l887 492v-386l-478 -268l478 -270v-382z" />
<glyph unicode="=" vert-adv-y="2458" d="M130 386v232h969v-232h-969zM130 748v232h969v-232h-969z" />
<glyph unicode="&#x3e;" horiz-adv-x="1024" vert-adv-y="2458" d="M68 40v385l478 269l-476 269l-2 383l887 -493v-322z" />
<glyph unicode="?" horiz-adv-x="1120" vert-adv-y="2458" d="M68 979q3 147 91 254q67 82 178 127q106 43 222 43q205 0 341 -127q65 -61 101.5 -141t36.5 -161q0 -128 -81 -230q-74 -95 -247 -156v-130h-333v353q55 -7 85 -7q77 0 139 37q86 52 86 142q0 59 -40 97q-40 37 -95 37q-69 0 -103 -57q-19 -31 -20 -81h-361zM341 173 q0 89 62 150q62 62 152 62q85 0 147 -62q62 -61 62 -149t-62 -150t-150 -62t-149 62q-62 62 -62 149z" />
<glyph unicode="@" horiz-adv-x="1409" vert-adv-y="2458" d="M-19 678q0 159 62.5 298.5t178.5 241.5q214 188 511 188q156 0 296 -57.5t235 -161.5q163 -176 163 -411q0 -165 -85 -302q-68 -111 -175 -160q-69 -32 -135 -32q-100 0 -156 88q-92 -91 -215 -91q-144 0 -238 108q-92 106 -92 266q0 179 115 291q103 99 251 99 q68 0 122 -23q23 -9 67 -36l12 43h189l-55 -451q-5 -43 -5 -89q0 -23 6 -29q4 -5 17 -5q21 0 43 11q58 28 94 84q64 100 64 224q0 204 -150 337q-148 132 -367 132q-238 0 -400 -164q-159 -162 -159 -397q0 -222 140 -379q157 -177 434 -177q185 0 322 64l65 31l12 5l32 16 l65 -165l-36 -18q-130 -61 -228 -84t-230 -23q-238 0 -411 99q-160 91 -256 252q-103 173 -103 377zM538 647q0 -80 40 -130q36 -45 92 -45q80 0 136 65q59 69 59 160q0 68 -47 110q-48 43 -114 43q-69 0 -117 -55q-49 -56 -49 -148z" />
<glyph unicode="A" horiz-adv-x="1454" vert-adv-y="2458" d="M14 0l525 1365h387l514 -1365h-379l-88 238h-490l-94 -238h-375zM581 508h296l-147 435z" />
<glyph unicode="B" horiz-adv-x="1266" vert-adv-y="2458" d="M143 0v1365h528q191 0 287 -95q97 -95 97 -261q0 -116 -50 -192q-33 -50 -100 -89q132 -26 190 -85q88 -90 88 -255q0 -166 -111 -270q-125 -118 -360 -118h-569zM498 276h79q118 0 175 25q33 15 52.5 47.5t19.5 72.5q0 83 -68 118q-38 20 -84 23q-39 2 -101 2h-73v-288z M498 828h65q85 0 126 37q41 36 41 96q0 65 -42.5 99t-124.5 34h-65v-266z" />
<glyph unicode="C" horiz-adv-x="1208" vert-adv-y="2458" d="M82 672q0 167 66 310t190 244q206 168 468 168q145 0 320 -69v-425q-122 150 -308 150q-162 0 -270 -113q-95 -100 -95 -263q0 -176 120 -277q107 -90 245 -90q172 0 308 143v-420q-78 -26 -119 -38q-102 -29 -199 -29q-151 0 -296 63t-250 175q-180 190 -180 471z" />
<glyph unicode="D" horiz-adv-x="1423" vert-adv-y="2458" d="M143 0v1365h524q256 0 449 -181q110 -102 169 -240q55 -129 55 -261q0 -194 -110 -366q-110 -171 -288 -255q-132 -62 -275 -62h-524zM498 300h81q100 0 169 27t122 87q99 111 99 269q0 157 -99 268q-60 68 -139 93q-65 21 -152 21h-81v-765z" />
<glyph unicode="E" horiz-adv-x="1002" vert-adv-y="2458" d="M143 0v1365h777v-300h-422v-228h399v-300h-399v-237h422v-300h-777z" />
<glyph unicode="F" horiz-adv-x="994" vert-adv-y="2458" d="M143 0v1365h782v-300h-427v-228h389v-300h-389v-537h-355z" />
<glyph unicode="G" horiz-adv-x="1593" vert-adv-y="2458" d="M82 675q0 167 61 313.5t170 244.5q197 176 510 176q272 0 449 -155q93 -81 166 -229l-337 -139q-93 216 -296 216q-157 0 -255 -125q-97 -123 -97 -302q0 -204 120 -332q93 -97 243 -97q154 0 232 99q37 48 50 137h-291v276h704q-4 -273 -71 -420q-85 -188 -246 -287 t-384 -99q-181 0 -331 66.5t-246 188.5q-151 193 -151 468z" />
<glyph unicode="H" horiz-adv-x="1509" vert-adv-y="2458" d="M143 0v1365h355v-527h512v527h355v-1365h-355v562h-512v-562h-355z" />
<glyph unicode="I" horiz-adv-x="642" vert-adv-y="2458" d="M143 0v1365h355v-1365h-355z" />
<glyph unicode="J" horiz-adv-x="959" vert-adv-y="2458" d="M14 165l232 237q6 -53 31 -86q35 -47 85 -47q100 0 100 157l-1 76v863h355v-944q0 -140 -35 -213q-61 -125 -186 -192q-101 -53 -225 -53q-219 0 -356 202z" />
<glyph unicode="K" horiz-adv-x="1433" vert-adv-y="2458" d="M143 0v1365h355v-563l433 563h438l-542 -646l592 -719h-460l-461 592v-592h-355z" />
<glyph unicode="L" horiz-adv-x="963" vert-adv-y="2458" d="M143 0v1365h355v-1065h426v-300h-781z" />
<glyph unicode="M" horiz-adv-x="1875" vert-adv-y="2458" d="M82 0l232 1365h350l277 -728l293 728h353l206 -1365h-355l-101 786l-330 -786h-141l-315 786l-116 -786h-353z" />
<glyph unicode="N" horiz-adv-x="1649" vert-adv-y="2458" d="M143 0v1365h355l653 -835v835h355v-1365h-355l-653 836v-836h-355z" />
<glyph unicode="O" horiz-adv-x="1675" vert-adv-y="2458" d="M82 684q0 159 67 302.5t189 247.5q202 172 513 172q328 0 545 -229q197 -207 197 -498q0 -163 -67 -308t-189 -248q-205 -172 -499 -172q-344 0 -559 228q-197 208 -197 505zM453 679q0 -158 113 -272q111 -112 271 -112t272 112q113 113 113 271q0 162 -113 272 q-115 112 -277 112q-155 0 -266 -112q-113 -114 -113 -271z" />
<glyph unicode="P" horiz-adv-x="1227" vert-adv-y="2458" d="M143 0v1365h565q161 0 251 -48q119 -65 176 -182q47 -95 47 -223q0 -207 -110 -331q-112 -127 -352 -127h-222v-454h-355zM498 739h118q103 0 145 39q50 46 50 130q0 172 -194 172h-119v-341z" />
<glyph unicode="Q" horiz-adv-x="1675" vert-adv-y="2458" d="M82 680q0 149 61.5 289t172.5 244q204 190 520 190q178 0 329 -64t254 -183q174 -201 174 -478q0 -194 -92 -358q-30 -53 -86 -125l231 -234l-326 -50l-109 128q-71 -39 -129 -57q-98 -30 -225 -30q-393 0 -602 257q-173 211 -173 471zM453 670q0 -169 121 -277 q108 -97 262 -97q52 0 110 17l-218 218l335 41l94 -101q65 96 65 206q0 151 -111 266q-112 116 -274 116t-276 -117q-108 -111 -108 -272z" />
<glyph unicode="R" horiz-adv-x="1284" vert-adv-y="2458" d="M143 0v1365h552q163 0 258 -57q101 -62 153 -178q41 -89 41 -187q0 -113 -52 -211q-70 -132 -246 -172l429 -560h-442l-338 524v-524h-355zM498 754h66q101 0 152 36q28 21 47 58.5t19 74.5t-19 74.5t-47 58.5q-51 36 -152 36h-66v-338z" />
<glyph unicode="S" horiz-adv-x="1170" vert-adv-y="2458" d="M82 119l152 286q158 -138 312 -138q96 0 138 48q33 38 33 85q0 69 -78 110q-34 18 -134 47q-196 58 -260 111q-108 89 -108 270q0 214 140 343q128 117 324 117q223 0 433 -111l-142 -276q-115 92 -232 92q-75 0 -117 -41q-35 -35 -35 -76q0 -62 85 -103q24 -11 160 -52 q122 -36 183 -78q90 -62 126 -149q26 -61 26 -151q0 -265 -175 -387q-144 -101 -356 -101q-255 0 -475 154z" />
<glyph unicode="T" horiz-adv-x="965" vert-adv-y="2458" d="M14 1065v300h938v-300h-294v-1065h-355v1065h-289z" />
<glyph unicode="U" horiz-adv-x="1477" vert-adv-y="2458" d="M143 578v787h355v-739q0 -139 11 -179q24 -85 88 -129q59 -40 138 -40q67 0 123.5 30t84.5 81q29 52 33 120q3 45 3 117v739h355v-787q0 -196 -52 -301q-79 -160 -236 -242q-135 -70 -316 -70q-157 0 -287 54.5t-202 149.5q-72 97 -88 231q-10 81 -10 178z" />
<glyph unicode="V" horiz-adv-x="1432" vert-adv-y="2458" d="M0 1365h386l329 -830l332 830h385l-582 -1365h-276z" />
<glyph unicode="W" horiz-adv-x="2076" vert-adv-y="2458" d="M0 1365h371l237 -882l289 882h282l269 -882l258 882h370l-436 -1365h-362l-249 791l-261 -791h-361z" />
<glyph unicode="X" horiz-adv-x="1455" vert-adv-y="2458" d="M0 0l534 728l-437 637h437l203 -354l212 354h436l-445 -637l515 -728h-428l-292 444l-306 -444h-429z" />
<glyph unicode="Y" horiz-adv-x="1311" vert-adv-y="2458" d="M-25 1365h424l258 -372l248 372h430l-511 -709v-656h-355v656z" />
<glyph unicode="Z" horiz-adv-x="1293" vert-adv-y="2458" d="M27 0l646 1065h-537v300h1129l-643 -1065h573v-300h-1168z" />
<glyph unicode="[" horiz-adv-x="689" vert-adv-y="2458" d="M164 -314v1816h444v-191h-185v-1432h185v-193h-444z" />
<glyph unicode="\" horiz-adv-x="1014" vert-adv-y="2458" d="M12 1502h260l745 -1816h-259z" />
<glyph unicode="]" horiz-adv-x="689" vert-adv-y="2458" d="M82 -123h184v1432h-184v193h443v-1816h-443v191z" />
<glyph unicode="^" horiz-adv-x="1024" vert-adv-y="2458" d="M13 691l285 684h429l285 -684h-338l-161 423l-162 -423h-338z" />
<glyph unicode="_" horiz-adv-x="1024" vert-adv-y="2458" d="M0 -99h1024v-226h-1024v226z" />
<glyph unicode="`" horiz-adv-x="1024" vert-adv-y="2458" d="M197 1344l208 149l259 -316l-152 -112z" />
<glyph unicode="a" horiz-adv-x="1270" vert-adv-y="2458" d="M75 466q0 237 165 379q131 113 301 113q115 0 207 -53q36 -20 82 -68v91h328v-928h-328v103q-106 -133 -286 -133q-96 0 -187.5 41t-157.5 114q-124 136 -124 341zM416 464q0 -86 62 -149q61 -62 150 -62q88 0 150 62t62 149q0 89 -62 149q-64 62 -153 62q-85 0 -147 -62 t-62 -149z" />
<glyph unicode="b" horiz-adv-x="1270" vert-adv-y="2458" d="M112 0v1502h328v-665q61 63 130 92t159 29q203 0 343 -154q123 -136 123 -338q0 -235 -161 -377q-134 -119 -308 -119q-180 0 -286 133v-103h-328zM430 464q0 -87 62 -149t151 -62q88 0 149 62q62 63 62 149q0 88 -62 149q-63 62 -152 62q-85 0 -148 -62 q-62 -62 -62 -149z" />
<glyph unicode="c" horiz-adv-x="887" vert-adv-y="2458" d="M75 456q0 230 166 375q143 126 350 126q119 0 221 -52v-279q-86 59 -170 59q-105 0 -172 -73q-54 -59 -54 -152q0 -99 66 -160q67 -62 160 -62q91 0 170 61v-278q-114 -52 -229 -52q-113 0 -218.5 47.5t-178.5 131.5q-111 126 -111 308z" />
<glyph unicode="d" horiz-adv-x="1270" vert-adv-y="2458" d="M75 466q0 237 165 379q131 113 301 113q115 0 207 -53q36 -20 82 -68v665h328v-1502h-328v103q-106 -133 -286 -133q-96 0 -187.5 41t-157.5 114q-124 136 -124 341zM416 464q0 -86 62 -149q61 -62 150 -62q88 0 150 62t62 149q0 89 -62 149q-64 62 -153 62 q-85 0 -147 -62t-62 -149z" />
<glyph unicode="e" horiz-adv-x="1172" vert-adv-y="2458" d="M75 455q0 124 46.5 229t129.5 170q128 100 340 100q220 0 350 -117q125 -113 149 -303q6 -52 6 -130h-690q3 -209 200 -209q75 0 119 36q19 16 42 52h316q-30 -104 -83 -165q-63 -74 -166.5 -114.5t-228.5 -40.5q-134 0 -243.5 45t-179.5 129q-107 129 -107 318zM415 594 h376q-12 52 -44 87q-58 62 -147 62q-90 0 -144 -59q-31 -34 -41 -90z" />
<glyph unicode="f" horiz-adv-x="708" vert-adv-y="2458" d="M22 655v273h117v140q0 126 27 195q46 118 166 194q103 65 221 65q72 0 145 -34v-286q-69 33 -115 33q-32 0 -62.5 -18t-41.5 -43q-12 -29 -12 -129v-117h231v-273h-231v-655h-328v655h-117z" />
<glyph unicode="g" horiz-adv-x="1263" vert-adv-y="2458" d="M75 450q0 228 145 371q135 133 327 133q114 0 198 -52q35 -22 78 -71v97h328v-864q0 -190 -47 -278q-74 -139 -222 -204q-114 -50 -271 -50q-272 0 -425 162q-82 87 -100 193h369q33 -93 156 -93q114 0 174 78q38 50 38 143v88q-57 -52 -99 -76q-84 -46 -193 -46 q-228 0 -359 166q-97 123 -97 303zM416 467q0 -88 62 -150q61 -62 149 -62t150 62t62 149q0 90 -62 150q-63 62 -152 62q-86 0 -147 -62q-62 -62 -62 -149z" />
<glyph unicode="h" horiz-adv-x="1203" vert-adv-y="2458" d="M112 0v1502h328v-691q57 66 105 93q79 45 192 45q169 0 268 -102q59 -60 75 -131q11 -50 11 -125v-591h-328v470q0 107 -20 146q-16 33 -52.5 52.5t-78.5 19.5q-86 0 -137 -62q-35 -43 -35 -129v-497h-328z" />
<glyph unicode="i" horiz-adv-x="552" vert-adv-y="2458" d="M91 1284q0 78 54 131q55 54 133 54q74 0 128 -54t54 -130q0 -77 -54 -131t-131 -54t-130 54q-54 55 -54 130zM111 0v928h328v-928h-328z" />
<glyph unicode="j" horiz-adv-x="552" vert-adv-y="2458" d="M91 1284q0 78 54 131q55 54 133 54q74 0 128 -54t54 -130q0 -77 -54 -131t-131 -54t-130 54q-54 55 -54 130zM111 -464v1392h328v-1392h-328z" />
<glyph unicode="k" horiz-adv-x="1264" vert-adv-y="2458" d="M112 0v1502h328v-908l343 334h450l-465 -428l493 -500h-460l-361 378v-378h-328z" />
<glyph unicode="l" horiz-adv-x="552" vert-adv-y="2458" d="M112 0v1502h328v-1502h-328z" />
<glyph unicode="m" horiz-adv-x="1795" vert-adv-y="2458" d="M112 0v928h328v-114q59 57 106 82q86 47 194 47q156 0 251 -90q31 -29 65 -83q108 174 313 174q82 0 153 -33.5t110 -91.5q51 -75 51 -216v-603h-328v459q0 81 -4 104q-13 65 -55 98q-33 26 -78 26q-41 0 -78.5 -23.5t-55.5 -61.5q-23 -49 -23 -143v-459h-328v459 q0 110 -14 147q-14 38 -50.5 63.5t-77.5 25.5q-38 0 -75 -22.5t-54 -55.5q-22 -45 -22 -158v-459h-328z" />
<glyph unicode="n" horiz-adv-x="1203" vert-adv-y="2458" d="M112 0v928h328v-117q57 66 105 93q78 44 192 44q170 0 268 -102q59 -60 75 -131q11 -49 11 -124v-591h-328v470q0 107 -20 145q-16 33 -52.5 52.5t-78.5 19.5q-86 0 -137 -62q-35 -43 -35 -128v-497h-328z" />
<glyph unicode="o" horiz-adv-x="1267" vert-adv-y="2458" d="M75 467q0 220 168 366q149 129 401 129q126 0 236 -44t184 -124q128 -138 128 -330q0 -226 -168 -370q-150 -129 -390 -129q-133 0 -245.5 44t-186.5 124q-127 138 -127 334zM422 466q0 -88 62 -151q61 -62 149 -62t150 62q62 63 62 151q0 90 -62 151q-63 62 -152 62 q-86 0 -147 -62q-62 -63 -62 -151z" />
<glyph unicode="p" horiz-adv-x="1270" vert-adv-y="2458" d="M112 -464v1392h328v-103q106 133 286 133q97 0 188 -41t157 -114q124 -137 124 -341q0 -237 -165 -379q-131 -113 -301 -113q-115 0 -207 53q-36 20 -82 68v-555h-328zM430 464q0 -88 62 -150t151 -62q88 0 149 62q62 63 62 149q0 89 -62 150q-63 62 -152 62 q-86 0 -148 -62t-62 -149z" />
<glyph unicode="q" horiz-adv-x="1270" vert-adv-y="2458" d="M75 462q0 235 161 377q134 119 308 119q180 0 286 -133v103h328v-1392h-328v555q-61 -63 -130 -92t-159 -29q-204 0 -343 154q-123 136 -123 338zM416 464q0 -87 62 -150q61 -62 150 -62q88 0 150 62t62 150q0 89 -62 149q-64 62 -153 62q-86 0 -147 -62 q-62 -63 -62 -149z" />
<glyph unicode="r" horiz-adv-x="842" vert-adv-y="2458" d="M112 0v928h328v-152q46 71 94 105q84 59 209 59q39 0 65 -2v-313q-67 33 -140 33q-114 0 -171 -65.5t-57 -195.5v-397h-328z" />
<glyph unicode="s" horiz-adv-x="922" vert-adv-y="2458" d="M55 72l119 232q140 -94 261 -94q47 0 78 23q25 19 25 48q0 42 -47 62q-19 9 -93 24q-118 25 -176 63q-96 65 -96 195q0 145 103 239q107 97 310 97q156 0 301 -60l-111 -212q-93 45 -179 45q-44 0 -70 -17q-30 -20 -30 -49q0 -37 52 -56q15 -6 95 -22q115 -24 175 -72 q95 -74 95 -204q0 -171 -136 -266q-116 -82 -305 -82q-191 0 -371 106z" />
<glyph unicode="t" horiz-adv-x="675" vert-adv-y="2458" d="M42 655v273h108v279h328v-279h187v-273h-187v-655h-328v655h-108z" />
<glyph unicode="u" horiz-adv-x="1212" vert-adv-y="2458" d="M112 339v589h328v-526q0 -172 167 -172q166 0 166 172v526h328v-589q0 -167 -103 -261q-130 -118 -391 -118q-262 0 -392 118q-103 94 -103 261z" />
<glyph unicode="v" horiz-adv-x="1181" vert-adv-y="2458" d="M0 928h369l222 -476l223 476h367l-483 -928h-219z" />
<glyph unicode="w" horiz-adv-x="1857" vert-adv-y="2458" d="M0 928h366l222 -489l233 489h206l232 -503l233 503h365l-486 -928h-219l-232 509l-222 -509h-221z" />
<glyph unicode="x" horiz-adv-x="1344" vert-adv-y="2458" d="M0 0l464 504l-377 424h427l160 -191l163 191h426l-384 -424l465 -504h-434l-239 276l-238 -276h-433z" />
<glyph unicode="y" horiz-adv-x="1246" vert-adv-y="2458" d="M0 928h381l248 -476l241 476h376l-745 -1392h-368l315 591z" />
<glyph unicode="z" horiz-adv-x="1067" vert-adv-y="2458" d="M41 0l438 655h-379v273h926l-435 -655h391v-273h-941z" />
<glyph unicode="{" horiz-adv-x="785" vert-adv-y="2458" d="M165 493v222q59 11 86 48q19 28 27 108v343q0 172 75 239q48 42 120 52q29 4 79 4q12 0 83 -3q23 -1 68 -2v-231h-33q-80 0 -103 -18t-26 -66q-1 -17 -1 -58v-279q0 -128 -42 -187q-23 -32 -81 -71q60 -40 83 -75q38 -61 40 -184v-278q0 -79 8 -98q12 -32 51 -40 q26 -5 66 -5q12 0 38 1v-232q-52 -1 -68 -1q-76 -3 -84 -3q-88 0 -134 18q-94 36 -123 137q-16 57 -16 140v342q-2 96 -27 128q-34 40 -86 49z" />
<glyph unicode="|" horiz-adv-x="1024" vert-adv-y="2458" d="M317 -341v1706h391v-1706h-391z" />
<glyph unicode="}" horiz-adv-x="785" vert-adv-y="2458" d="M83 -85q27 -1 39 -1q73 0 96 18t26 67q1 16 1 58v279q0 128 42 187q23 31 81 71q-60 40 -83 75q-38 60 -40 184v278q0 79 -8 98q-12 32 -51 40q-25 5 -64 5q-12 0 -39 -1v231q51 2 68 2q73 3 83 3q88 0 134 -18q94 -36 123 -137q16 -57 16 -140v-342q2 -96 28 -128 q34 -41 86 -49v-222q-59 -11 -87 -48q-17 -26 -23 -73q-4 -30 -4 -35v-343q0 -172 -75 -239q-48 -42 -120 -52q-29 -4 -79 -4q-10 0 -82 3q-23 1 -68 2v231z" />
<glyph unicode="~" horiz-adv-x="1365" vert-adv-y="2458" d="M184 1243q11 24 41 91q85 192 269 192q69 0 212 -53q99 -37 119 -42q31 -7 58 -7q63 0 102 40q19 19 46 66l149 -86q-53 -113 -97 -165q-88 -106 -227 -106q-41 0 -91 15q-38 11 -118 39q-129 46 -168 46q-69 0 -108 -51q-14 -20 -43 -74z" />
<glyph unicode="&#xa0;" horiz-adv-x="512" vert-adv-y="2458" />
<glyph unicode="&#xa2;" horiz-adv-x="1024" vert-adv-y="2458" d="M154 1421h209q20 -149 149 -149t149 149h209q-3 -71 -14 -111.5t-38 -82.5q-95 -149 -306 -149t-306 149q-37 57 -46 120q-4 30 -6 74z" />
<glyph unicode="&#xa3;" vert-adv-y="2458" d="M41 0q32 134 92 207q98 114 218 114q16 33 16 67q0 72 -35 137h-270v173h149q-53 92 -53 215q0 186 122 321q73 81 174 118.5t245 37.5q236 0 352 -106q137 -125 137 -407h-358q7 42 7 64q0 74 -50 122q-51 49 -117 49q-67 0 -115 -47q-54 -53 -54 -147q0 -73 25 -144 q3 -9 33 -76h307v-173h-256q8 -61 8 -114q0 -55 -17 -111q122 -36 144 -42q93 -26 146 -26q86 0 90 89h220q-6 -91 -37 -160q-44 -98 -117 -144t-185 -46q-52 0 -94 10q-43 9 -149 41q-153 45 -228 45q-93 0 -116 -67h-234z" />
<glyph unicode="&#xa5;" horiz-adv-x="1454" vert-adv-y="2458" d="M14 0l525 1365h387l514 -1365q-131 -88 -131 -163q0 -36 27 -58q23 -18 53 -18q46 0 109 33l-47 -184q-64 -31 -146 -31q-104 0 -163 58q-51 49 -51 118q0 127 173 245h-203l-88 238h-490l-94 -238h-375zM581 508h296l-147 435z" />
<glyph unicode="&#xa8;" horiz-adv-x="1024" vert-adv-y="2458" d="M103 1249q0 75 52 126q53 52 128 52q71 0 123 -52t52 -125q0 -74 -52 -126t-126 -52t-125 52q-52 53 -52 125zM567 1249q0 75 52 126q53 52 127 52q72 0 124 -52t52 -125q0 -74 -52 -126t-126 -52t-125 52q-52 53 -52 125z" />
<glyph unicode="&#xa9;" horiz-adv-x="1556" vert-adv-y="2458" d="M68 681q0 204 105 376q103 170 286 262q151 77 330 77q135 0 263 -54.5t227 -153.5q100 -100 154.5 -232t54.5 -274t-54 -273t-154 -231q-99 -101 -229 -155t-271 -54q-140 0 -270.5 53.5t-230.5 152.5q-101 101 -156 233t-55 273zM210 683q0 -245 169 -416 q167 -170 400 -170q112 0 217 45t184 127q166 171 166 412q0 118 -44 227.5t-123 189.5q-169 170 -405 170q-108 0 -212 -44.5t-183 -124.5q-169 -171 -169 -416zM366 678q0 126 66 228q62 97 172 153q100 50 212 50q91 0 211 -44v-292q-37 42 -43 48q-63 61 -158 61 q-86 0 -144 -55t-58 -149q0 -86 53 -139q61 -60 148 -60t154 55q6 6 48 46v-286q-134 -42 -210 -42q-93 0 -183.5 37.5t-155.5 104.5q-112 114 -112 284z" />
<glyph unicode="&#xab;" horiz-adv-x="1087" vert-adv-y="2458" d="M57 467l311 444l181 -124l-228 -320l234 -315l-187 -131zM508 467l311 444l181 -124l-228 -320l233 -315l-186 -131z" />
<glyph unicode="&#xad;" horiz-adv-x="519" vert-adv-y="2458" d="M0 348v273h519v-273h-519z" />
<glyph unicode="&#xae;" horiz-adv-x="1556" vert-adv-y="2458" d="M68 681q0 204 105 376q103 170 286 262q151 77 330 77q135 0 263 -54.5t227 -153.5q100 -100 154.5 -232t54.5 -274t-54 -273t-154 -231q-99 -101 -229 -155t-271 -54q-140 0 -270.5 53.5t-230.5 152.5q-101 101 -156 233t-55 273zM210 683q0 -245 169 -416 q167 -170 400 -170q112 0 217 45t184 127q166 171 166 412q0 118 -44 227.5t-123 189.5q-169 170 -405 170q-108 0 -212 -44.5t-183 -124.5q-169 -171 -169 -416zM418 273v819h356q142 0 217 -74q76 -75 76 -184q0 -88 -44 -146.5t-129 -84.5l270 -330h-310l-189 274v-274 h-247zM665 738h28q57 0 86 19q35 23 35 65q0 43 -35 66q-29 19 -86 19h-28v-169z" />
<glyph unicode="&#xb4;" horiz-adv-x="1024" vert-adv-y="2458" d="M361 1177l259 316l208 -149l-315 -279z" />
<glyph unicode="&#xb8;" horiz-adv-x="1024" vert-adv-y="2458" d="M381 -396l240 293l187 -122l-279 -264z" />
<glyph unicode="&#xbb;" horiz-adv-x="1087" vert-adv-y="2458" d="M82 152l233 315l-228 320l182 124l311 -444l-311 -446zM533 152l233 315l-228 320l181 124l311 -444l-311 -446z" />
<glyph unicode="&#xc1;" horiz-adv-x="1454" vert-adv-y="2458" d="M14 0l525 1365h387l514 -1365h-379l-88 238h-490l-94 -238h-375zM580 1603l296 282l190 -173l-348 -237zM581 508h296l-147 435z" />
<glyph unicode="&#xc9;" horiz-adv-x="1002" vert-adv-y="2458" d="M143 0v1365h777v-300h-422v-228h399v-300h-399v-237h422v-300h-777zM367 1603l296 282l190 -173l-348 -237z" />
<glyph unicode="&#xcd;" horiz-adv-x="642" vert-adv-y="2458" d="M143 0v1365h355v-1365h-355zM166 1603l296 282l190 -173l-348 -237z" />
<glyph unicode="&#xd3;" horiz-adv-x="1675" vert-adv-y="2458" d="M82 684q0 159 67 302.5t189 247.5q202 172 513 172q328 0 545 -229q197 -207 197 -498q0 -163 -67 -308t-189 -248q-205 -172 -499 -172q-344 0 -559 228q-197 208 -197 505zM453 679q0 -158 113 -272q111 -112 271 -112t272 112q113 113 113 271q0 162 -113 272 q-115 112 -277 112q-155 0 -266 -112q-113 -114 -113 -271zM676 1603l296 282l190 -173l-348 -237z" />
<glyph unicode="&#xda;" horiz-adv-x="1477" vert-adv-y="2458" d="M143 578v787h355v-739q0 -139 11 -179q24 -85 88 -129q59 -40 138 -40q67 0 123.5 30t84.5 81q29 52 33 120q3 45 3 117v739h355v-787q0 -196 -52 -301q-79 -160 -236 -242q-135 -70 -316 -70q-157 0 -287 54.5t-202 149.5q-72 97 -88 231q-10 81 -10 178zM591 1603 l296 282l190 -173l-348 -237z" />
<glyph unicode="&#xdd;" horiz-adv-x="1311" vert-adv-y="2458" d="M-25 1365h424l258 -372l248 372h430l-511 -709v-656h-355v656zM521 1603l296 282l190 -173l-348 -237z" />
<glyph unicode="&#xe1;" horiz-adv-x="1270" vert-adv-y="2458" d="M75 466q0 237 165 379q131 113 301 113q115 0 207 -53q36 -20 82 -68v91h328v-928h-328v103q-106 -133 -286 -133q-96 0 -187.5 41t-157.5 114q-124 136 -124 341zM416 464q0 -86 62 -149q61 -62 150 -62q88 0 150 62t62 149q0 89 -62 149q-64 62 -153 62q-85 0 -147 -62 t-62 -149zM483 1177l259 316l208 -149l-315 -279z" />
<glyph unicode="&#xe9;" horiz-adv-x="1172" vert-adv-y="2458" d="M75 455q0 124 46.5 229t129.5 170q128 100 340 100q220 0 350 -117q125 -113 149 -303q6 -52 6 -130h-690q3 -209 200 -209q75 0 119 36q19 16 42 52h316q-30 -104 -83 -165q-63 -74 -166.5 -114.5t-228.5 -40.5q-134 0 -243.5 45t-179.5 129q-107 129 -107 318zM415 594 h376q-12 52 -44 87q-58 62 -147 62q-90 0 -144 -59q-31 -34 -41 -90zM434 1177l259 316l208 -149l-315 -279z" />
<glyph unicode="&#xed;" horiz-adv-x="552" vert-adv-y="2458" d="M112 0v928h328v-928h-328zM124 1177l259 316l208 -149l-315 -279z" />
<glyph unicode="&#xf3;" horiz-adv-x="1267" vert-adv-y="2458" d="M75 467q0 220 168 366q149 129 401 129q126 0 236 -44t184 -124q128 -138 128 -330q0 -226 -168 -370q-150 -129 -390 -129q-133 0 -245.5 44t-186.5 124q-127 138 -127 334zM422 466q0 -88 62 -151q61 -62 149 -62t150 62q62 63 62 151q0 90 -62 151q-63 62 -152 62 q-86 0 -147 -62q-62 -63 -62 -151zM468 1177l259 316l208 -149l-315 -279z" />
<glyph unicode="&#xfa;" horiz-adv-x="1212" vert-adv-y="2458" d="M112 339v589h328v-526q0 -172 167 -172q166 0 166 172v526h328v-589q0 -167 -103 -261q-130 -118 -391 -118q-262 0 -392 118q-103 94 -103 261zM455 1177l259 316l208 -149l-315 -279z" />
<glyph unicode="&#xfd;" horiz-adv-x="1246" vert-adv-y="2458" d="M0 928h381l248 -476l241 476h376l-745 -1392h-368l315 591zM485 1177l259 316l208 -149l-315 -279z" />
<glyph unicode="&#x10c;" horiz-adv-x="1208" vert-adv-y="2458" d="M82 672q0 167 66 310t190 244q206 168 468 168q145 0 320 -69v-425q-122 150 -308 150q-162 0 -270 -113q-95 -100 -95 -263q0 -176 120 -277q107 -90 245 -90q172 0 308 143v-420q-78 -26 -119 -38q-102 -29 -199 -29q-151 0 -296 63t-250 175q-180 190 -180 471z M324 1721l98 155l319 -160l319 160l98 -155l-417 -246z" />
<glyph unicode="&#x10d;" horiz-adv-x="887" vert-adv-y="2458" d="M75 456q0 230 166 375q143 126 350 126q119 0 221 -52v-279q-86 59 -170 59q-105 0 -172 -73q-54 -59 -54 -152q0 -99 66 -160q67 -62 160 -62q91 0 170 61v-278q-114 -52 -229 -52q-113 0 -218.5 47.5t-178.5 131.5q-111 126 -111 308zM150 1366l139 158l261 -202 l261 202l145 -158l-406 -301z" />
<glyph unicode="&#x10e;" horiz-adv-x="1423" vert-adv-y="2458" d="M143 0v1365h524q256 0 449 -181q110 -102 169 -240q55 -129 55 -261q0 -194 -110 -366q-110 -171 -288 -255q-132 -62 -275 -62h-524zM226 1721l98 155l319 -160l319 160l98 -155l-417 -246zM498 300h81q100 0 169 27t122 87q99 111 99 269q0 157 -99 268q-60 68 -139 93 q-65 21 -152 21h-81v-765z" />
<glyph unicode="&#x10f;" horiz-adv-x="1625" vert-adv-y="2458" d="M75 466q0 237 165 379q131 113 301 113q115 0 207 -53q36 -20 82 -68v665h328v-1502h-328v103q-106 -133 -286 -133q-96 0 -187.5 41t-157.5 114q-124 136 -124 341zM416 464q0 -86 62 -149q61 -62 150 -62q88 0 150 62t62 149q0 89 -62 149q-64 62 -153 62 q-85 0 -147 -62t-62 -149zM1240 1154l135 348h250l-187 -348h-198z" />
<glyph unicode="&#x11a;" horiz-adv-x="1002" vert-adv-y="2458" d="M115 1721l98 155l319 -160l319 160l98 -155l-417 -246zM143 0v1365h777v-300h-422v-228h399v-300h-399v-237h422v-300h-777z" />
<glyph unicode="&#x11b;" horiz-adv-x="1172" vert-adv-y="2458" d="M75 455q0 124 46.5 229t129.5 170q128 100 340 100q220 0 350 -117q125 -113 149 -303q6 -52 6 -130h-690q3 -209 200 -209q75 0 119 36q19 16 42 52h316q-30 -104 -83 -165q-63 -74 -166.5 -114.5t-228.5 -40.5q-134 0 -243.5 45t-179.5 129q-107 129 -107 318z M189 1366l139 158l261 -202l261 202l145 -158l-406 -301zM415 594h376q-12 52 -44 87q-58 62 -147 62q-90 0 -144 -59q-31 -34 -41 -90z" />
<glyph unicode="&#x147;" horiz-adv-x="1649" vert-adv-y="2458" d="M143 0v1365h355l653 -835v835h355v-1365h-355l-653 836v-836h-355zM408 1721l98 155l319 -160l319 160l98 -155l-417 -246z" />
<glyph unicode="&#x148;" horiz-adv-x="1203" vert-adv-y="2458" d="M112 0v928h328v-117q57 66 105 93q78 44 192 44q170 0 268 -102q59 -60 75 -131q11 -49 11 -124v-591h-328v470q0 107 -20 145q-16 33 -52.5 52.5t-78.5 19.5q-86 0 -137 -62q-35 -43 -35 -128v-497h-328zM198 1366l139 158l261 -202l261 202l145 -158l-406 -301z" />
<glyph unicode="&#x158;" horiz-adv-x="1284" vert-adv-y="2458" d="M143 0v1365h552q163 0 258 -57q101 -62 153 -178q41 -89 41 -187q0 -113 -52 -211q-70 -132 -246 -172l429 -560h-442l-338 524v-524h-355zM184 1721l98 155l319 -160l319 160l98 -155l-417 -246zM498 754h66q101 0 152 36q28 21 47 58.5t19 74.5t-19 74.5t-47 58.5 q-51 36 -152 36h-66v-338z" />
<glyph unicode="&#x159;" horiz-adv-x="842" vert-adv-y="2458" d="M32 1366l139 158l261 -202l261 202l145 -158l-406 -301zM112 0v928h328v-152q46 71 94 105q84 59 209 59q39 0 65 -2v-313q-67 33 -140 33q-114 0 -171 -65.5t-57 -195.5v-397h-328z" />
<glyph unicode="&#x160;" horiz-adv-x="1170" vert-adv-y="2458" d="M82 119l152 286q158 -138 312 -138q96 0 138 48q33 38 33 85q0 69 -78 110q-34 18 -134 47q-196 58 -260 111q-108 89 -108 270q0 214 140 343q128 117 324 117q223 0 433 -111l-142 -276q-115 92 -232 92q-75 0 -117 -41q-35 -35 -35 -76q0 -62 85 -103q24 -11 160 -52 q122 -36 183 -78q90 -62 126 -149q26 -61 26 -151q0 -265 -175 -387q-144 -101 -356 -101q-255 0 -475 154zM182 1721l98 155l319 -160l319 160l98 -155l-417 -246z" />
<glyph unicode="&#x161;" horiz-adv-x="922" vert-adv-y="2458" d="M55 72l119 232q140 -94 261 -94q47 0 78 23q25 19 25 48q0 42 -47 62q-19 9 -93 24q-118 25 -176 63q-96 65 -96 195q0 145 103 239q107 97 310 97q156 0 301 -60l-111 -212q-93 45 -179 45q-44 0 -70 -17q-30 -20 -30 -49q0 -37 52 -56q15 -6 95 -22q115 -24 175 -72 q95 -74 95 -204q0 -171 -136 -266q-116 -82 -305 -82q-191 0 -371 106zM99 1366l139 158l261 -202l261 202l145 -158l-406 -301z" />
<glyph unicode="&#x164;" horiz-adv-x="965" vert-adv-y="2458" d="M14 1065v300h938v-300h-294v-1065h-355v1065h-289zM66 1721l98 155l319 -160l319 160l98 -155l-417 -246z" />
<glyph unicode="&#x165;" horiz-adv-x="949" vert-adv-y="2458" d="M42 655v273h108v279h328v-279h187v-273h-187v-655h-328v655h-108zM564 1028l135 348h250l-187 -348h-198z" />
<glyph unicode="&#x16e;" horiz-adv-x="1477" vert-adv-y="2458" d="M143 578v787h355v-739q0 -139 11 -179q24 -85 88 -129q59 -40 138 -40q67 0 123.5 30t84.5 81q29 52 33 120q3 45 3 117v739h355v-787q0 -196 -52 -301q-79 -160 -236 -242q-135 -70 -316 -70q-157 0 -287 54.5t-202 149.5q-72 97 -88 231q-10 81 -10 178zM457 1682 q0 97 75 154q72 56 205 56q134 0 208 -56q75 -57 75 -156t-75 -157q-73 -55 -205 -55q-135 -1 -208 55q-75 58 -75 159zM633 1680q0 -35 29 -57q28 -21 77 -21q48 0 76 21q29 22 29 57q0 36 -29 57q-28 21 -78 21q-47 0 -75 -21q-29 -22 -29 -57z" />
<glyph unicode="&#x16f;" horiz-adv-x="1212" vert-adv-y="2458" d="M112 339v589h328v-526q0 -172 167 -172q166 0 166 172v526h328v-589q0 -167 -103 -261q-130 -118 -391 -118q-262 0 -392 118q-103 94 -103 261zM325 1286q0 97 75 154q72 55 205 56q134 0 208 -56q75 -58 75 -156q0 -99 -75 -157q-73 -55 -205 -56q-135 0 -208 56 q-75 58 -75 159zM497 1284q0 -37 30 -60q29 -22 80 -22q50 0 79 22q30 23 30 60q0 38 -30 60q-29 22 -81 22q-49 0 -78 -22q-30 -23 -30 -60z" />
<glyph unicode="&#x17d;" horiz-adv-x="1293" vert-adv-y="2458" d="M27 0l646 1065h-537v300h1129l-643 -1065h573v-300h-1168zM243 1721l98 155l346 -160l346 160l98 -155l-444 -246z" />
<glyph unicode="&#x17e;" horiz-adv-x="1067" vert-adv-y="2458" d="M41 0l438 655h-379v273h926l-435 -655h391v-273h-941zM144 1366l139 158l261 -202l261 202l145 -158l-406 -301z" />
<glyph unicode="&#x2000;" horiz-adv-x="946" vert-adv-y="0" />
<glyph unicode="&#x2001;" horiz-adv-x="1892" vert-adv-y="0" />
<glyph unicode="&#x2002;" horiz-adv-x="946" vert-adv-y="0" />
<glyph unicode="&#x2003;" horiz-adv-x="1892" vert-adv-y="0" />
<glyph unicode="&#x2004;" horiz-adv-x="630" vert-adv-y="0" />
<glyph unicode="&#x2005;" horiz-adv-x="473" vert-adv-y="0" />
<glyph unicode="&#x2006;" horiz-adv-x="315" vert-adv-y="0" />
<glyph unicode="&#x2007;" horiz-adv-x="315" vert-adv-y="0" />
<glyph unicode="&#x2008;" horiz-adv-x="236" vert-adv-y="0" />
<glyph unicode="&#x2009;" horiz-adv-x="378" vert-adv-y="0" />
<glyph unicode="&#x200a;" horiz-adv-x="105" vert-adv-y="0" />
<glyph unicode="&#x2010;" horiz-adv-x="519" vert-adv-y="2458" d="M0 348v273h519v-273h-519z" />
<glyph unicode="&#x2011;" horiz-adv-x="519" vert-adv-y="2458" d="M0 348v273h519v-273h-519z" />
<glyph unicode="&#x2012;" horiz-adv-x="519" vert-adv-y="2458" d="M0 348v273h519v-273h-519z" />
<glyph unicode="&#x2013;" vert-adv-y="2458" d="M130 348v273h969v-273h-969z" />
<glyph unicode="&#x2014;" horiz-adv-x="1570" vert-adv-y="2458" d="M0 348v273h1570v-273h-1570z" />
<glyph unicode="&#x2018;" horiz-adv-x="707" vert-adv-y="2458" d="M96 765l333 600h210l-234 -600h-309z" />
<glyph unicode="&#x2019;" horiz-adv-x="707" vert-adv-y="2458" d="M68 765l235 600h308l-333 -600h-210z" />
<glyph unicode="&#x201a;" horiz-adv-x="707" vert-adv-y="2458" d="M68 -254l235 601h308l-333 -601h-210z" />
<glyph unicode="&#x201c;" horiz-adv-x="1171" vert-adv-y="2458" d="M96 765l333 600h210l-234 -600h-309zM560 765l333 600h211l-235 -600h-309z" />
<glyph unicode="&#x201d;" horiz-adv-x="1171" vert-adv-y="2458" d="M68 765l235 600h308l-333 -600h-210zM532 765l235 600h309l-334 -600h-210z" />
<glyph unicode="&#x201e;" horiz-adv-x="1171" vert-adv-y="2458" d="M68 -254l235 601h308l-333 -601h-210zM532 -254l235 601h309l-334 -601h-210z" />
<glyph unicode="&#x2026;" horiz-adv-x="1864" vert-adv-y="2458" d="M99 174q0 89 62 150q63 62 152 62q86 0 148 -62t62 -150t-62 -150t-150 -62t-150 62q-62 63 -62 150zM720 174q0 89 62 150q63 62 152 62q86 0 148 -62t62 -150t-62 -150t-150 -62q-89 0 -150 62q-62 63 -62 150zM1341 174q0 89 62 150q63 62 152 62q86 0 148 -62 t62 -150t-62 -150t-150 -62q-89 0 -150 62q-62 63 -62 150z" />
<glyph unicode="&#x202f;" horiz-adv-x="378" vert-adv-y="0" />
<glyph unicode="&#x2039;" horiz-adv-x="637" vert-adv-y="2458" d="M57 467l311 444l181 -124l-228 -320l234 -315l-187 -131z" />
<glyph unicode="&#x203a;" horiz-adv-x="637" vert-adv-y="2458" d="M82 152l233 315l-228 320l182 124l311 -444l-311 -446z" />
<glyph unicode="&#x205f;" horiz-adv-x="473" vert-adv-y="0" />
<glyph unicode="&#x2122;" horiz-adv-x="1590" vert-adv-y="2458" d="M1 1183v182h539v-182h-165v-596h-212v596h-162zM580 587l130 778h209l149 -399l157 399h211l115 -778h-212l-53 422l-175 -422h-92l-167 422l-61 -422h-211z" />
<glyph unicode="&#x25fc;" horiz-adv-x="930" vert-adv-y="1860" d="M0 0v930h930v-930h-930z" />
</font>
</defs>
</svg>
